<svg xmlns="http://www.w3.org/2000/svg" width="1260.95" height="1090.368" viewBox="0 0 1260.95 1090.368">
  <g id="bg-dark" transform="translate(-154.628 105.719)">
    <g id="Group_28" data-name="Group 28" transform="matrix(0.966, 0.259, -0.259, 0.966, 131.386, -185.471)">
      <rect id="Rectangle_16" data-name="Rectangle 16" width="211.204" height="308.358" rx="16" transform="translate(800.489 233.075)" fill="#242424"/>
      <ellipse id="Ellipse_6" data-name="Ellipse 6" cx="6.836" cy="7.04" rx="6.836" ry="7.04" transform="translate(815.977 252.787)" fill="#0f0f0f"/>
      <rect id="Rectangle_20" data-name="Rectangle 20" width="47.873" height="4.224" rx="2" transform="translate(837.098 255.604)" fill="#0f0f0f"/>
      <rect id="Rectangle_21" data-name="Rectangle 21" width="18.304" height="4.224" rx="2" transform="translate(837.098 261.236)" fill="#444"/>
      <ellipse id="Ellipse_4" data-name="Ellipse 4" cx="3.52" cy="4.224" rx="3.52" ry="4.224" transform="translate(990.573 304.885)" fill="#144c4e"/>
      <ellipse id="Ellipse_8" data-name="Ellipse 8" cx="3.52" cy="4.224" rx="3.52" ry="4.224" transform="translate(990.573 385.142)" fill="#144c4e"/>
      <circle id="Ellipse_5" data-name="Ellipse 5" cx="2.816" cy="2.816" r="2.816" transform="translate(815.977 286.58)" fill="#444"/>
      <circle id="Ellipse_7" data-name="Ellipse 7" cx="2.816" cy="2.816" r="2.816" transform="translate(815.977 345.717)" fill="#444"/>
      <rect id="Rectangle_17" data-name="Rectangle 17" width="66.177" height="11.264" rx="3" transform="translate(828.649 286.58)" fill="#444"/>
      <rect id="Rectangle_23" data-name="Rectangle 23" width="66.177" height="11.264" rx="3" transform="translate(828.649 345.717)" fill="#444"/>
      <rect id="Rectangle_24" data-name="Rectangle 24" width="45.057" height="12.672" rx="3" transform="translate(828.649 365.43)" fill="#444"/>
      <rect id="Rectangle_19" data-name="Rectangle 19" width="66.177" height="12.672" rx="3" transform="translate(917.355 304.885)" fill="#144c4e"/>
      <rect id="Rectangle_25" data-name="Rectangle 25" width="66.177" height="12.672" rx="3" transform="translate(917.355 385.142)" fill="#144c4e"/>
      <rect id="Rectangle_22" data-name="Rectangle 22" width="43.649" height="12.672" rx="3" transform="translate(939.884 324.597)" fill="#144c4e"/>
      <ellipse id="Ellipse_4-2" data-name="Ellipse 4" cx="3.52" cy="2.816" rx="3.52" ry="2.816" transform="translate(990.573 430.199)" fill="#144c4e"/>
      <ellipse id="Ellipse_5-2" data-name="Ellipse 5" cx="2.816" cy="3.52" rx="2.816" ry="3.52" transform="translate(815.977 410.487)" fill="#444"/>
      <ellipse id="Ellipse_7-2" data-name="Ellipse 7" cx="2.816" cy="3.52" rx="2.816" ry="3.52" transform="translate(815.977 469.624)" fill="#444"/>
      <rect id="Rectangle_17-2" data-name="Rectangle 17" width="66.177" height="11.264" rx="3" transform="translate(828.649 410.487)" fill="#444"/>
      <rect id="Rectangle_23-2" data-name="Rectangle 23" width="66.177" height="12.672" rx="3" transform="translate(828.649 469.624)" fill="#444"/>
      <rect id="Rectangle_19-2" data-name="Rectangle 19" width="66.177" height="12.672" rx="3" transform="translate(917.355 430.199)" fill="#144c4e"/>
      <rect id="Rectangle_22-2" data-name="Rectangle 22" width="43.649" height="12.672" rx="3" transform="translate(939.884 448.503)" fill="#144c4e"/>
      <rect id="Rectangle_18" data-name="Rectangle 18" width="161.923" height="16.896" rx="3" transform="translate(815.977 504.825)" fill="#444"/>
      <path id="Polygon_1" data-name="Polygon 1" d="M2.6,2.215a1,1,0,0,1,1.846,0l2.02,4.848A1,1,0,0,1,5.54,8.448H1.5A1,1,0,0,1,.577,7.064Z" transform="translate(997.613 509.049) rotate(90)" fill="#444"/>
    </g>
    <g id="Group_35" data-name="Group 35" transform="matrix(0.966, 0.259, -0.259, 0.966, -151.274, -181.494)" opacity="0.26">
      <rect id="Rectangle_16-2" data-name="Rectangle 16" width="211.204" height="308.358" rx="16" transform="translate(800.489 233.075)" fill="#242424"/>
      <ellipse id="Ellipse_6-2" data-name="Ellipse 6" cx="6.836" cy="7.04" rx="6.836" ry="7.04" transform="translate(815.977 252.787)" fill="#0f0f0f"/>
      <rect id="Rectangle_20-2" data-name="Rectangle 20" width="47.873" height="4.224" rx="2" transform="translate(837.098 255.604)" fill="#0f0f0f"/>
      <rect id="Rectangle_21-2" data-name="Rectangle 21" width="18.304" height="4.224" rx="2" transform="translate(837.098 261.236)" fill="#444"/>
      <ellipse id="Ellipse_4-3" data-name="Ellipse 4" cx="3.52" cy="4.224" rx="3.52" ry="4.224" transform="translate(990.573 304.885)" fill="#144c4e"/>
      <ellipse id="Ellipse_8-2" data-name="Ellipse 8" cx="3.52" cy="4.224" rx="3.52" ry="4.224" transform="translate(990.573 385.142)" fill="#144c4e"/>
      <circle id="Ellipse_5-3" data-name="Ellipse 5" cx="2.816" cy="2.816" r="2.816" transform="translate(815.977 286.58)" fill="#444"/>
      <circle id="Ellipse_7-3" data-name="Ellipse 7" cx="2.816" cy="2.816" r="2.816" transform="translate(815.977 345.717)" fill="#444"/>
      <rect id="Rectangle_17-3" data-name="Rectangle 17" width="66.177" height="11.264" rx="3" transform="translate(828.649 286.58)" fill="#444"/>
      <rect id="Rectangle_23-3" data-name="Rectangle 23" width="66.177" height="11.264" rx="3" transform="translate(828.649 345.717)" fill="#444"/>
      <rect id="Rectangle_24-2" data-name="Rectangle 24" width="45.057" height="12.672" rx="3" transform="translate(828.649 365.43)" fill="#444"/>
      <rect id="Rectangle_19-3" data-name="Rectangle 19" width="66.177" height="12.672" rx="3" transform="translate(917.355 304.885)" fill="#144c4e"/>
      <rect id="Rectangle_25-2" data-name="Rectangle 25" width="66.177" height="12.672" rx="3" transform="translate(917.355 385.142)" fill="#144c4e"/>
      <rect id="Rectangle_22-3" data-name="Rectangle 22" width="43.649" height="12.672" rx="3" transform="translate(939.884 324.597)" fill="#144c4e"/>
      <ellipse id="Ellipse_4-4" data-name="Ellipse 4" cx="3.52" cy="2.816" rx="3.52" ry="2.816" transform="translate(990.573 430.199)" fill="#144c4e"/>
      <ellipse id="Ellipse_5-4" data-name="Ellipse 5" cx="2.816" cy="3.52" rx="2.816" ry="3.52" transform="translate(815.977 410.487)" fill="#444"/>
      <ellipse id="Ellipse_7-4" data-name="Ellipse 7" cx="2.816" cy="3.52" rx="2.816" ry="3.52" transform="translate(815.977 469.624)" fill="#444"/>
      <rect id="Rectangle_17-4" data-name="Rectangle 17" width="66.177" height="11.264" rx="3" transform="translate(828.649 410.487)" fill="#444"/>
      <rect id="Rectangle_23-4" data-name="Rectangle 23" width="66.177" height="12.672" rx="3" transform="translate(828.649 469.624)" fill="#444"/>
      <rect id="Rectangle_19-4" data-name="Rectangle 19" width="66.177" height="12.672" rx="3" transform="translate(917.355 430.199)" fill="#144c4e"/>
      <rect id="Rectangle_22-4" data-name="Rectangle 22" width="43.649" height="12.672" rx="3" transform="translate(939.884 448.503)" fill="#144c4e"/>
      <rect id="Rectangle_18-2" data-name="Rectangle 18" width="161.923" height="16.896" rx="3" transform="translate(815.977 504.825)" fill="#444"/>
      <path id="Polygon_1-2" data-name="Polygon 1" d="M2.6,2.215a1,1,0,0,1,1.846,0l2.02,4.848A1,1,0,0,1,5.54,8.448H1.5A1,1,0,0,1,.577,7.064Z" transform="translate(997.613 509.049) rotate(90)" fill="#444"/>
    </g>
    <g id="Group_38" data-name="Group 38" transform="matrix(0.966, 0.259, -0.259, 0.966, -383.983, -363.94)" opacity="0.26">
      <rect id="Rectangle_16-3" data-name="Rectangle 16" width="211.204" height="308.358" rx="16" transform="translate(800.489 233.075)" fill="#242424"/>
      <ellipse id="Ellipse_6-3" data-name="Ellipse 6" cx="6.836" cy="7.04" rx="6.836" ry="7.04" transform="translate(815.977 252.787)" fill="#0f0f0f"/>
      <rect id="Rectangle_20-3" data-name="Rectangle 20" width="47.873" height="4.224" rx="2" transform="translate(837.098 255.604)" fill="#0f0f0f"/>
      <rect id="Rectangle_21-3" data-name="Rectangle 21" width="18.304" height="4.224" rx="2" transform="translate(837.098 261.236)" fill="#444"/>
      <ellipse id="Ellipse_4-5" data-name="Ellipse 4" cx="3.52" cy="4.224" rx="3.52" ry="4.224" transform="translate(990.573 304.885)" fill="#144c4e"/>
      <ellipse id="Ellipse_8-3" data-name="Ellipse 8" cx="3.52" cy="4.224" rx="3.52" ry="4.224" transform="translate(990.573 385.142)" fill="#144c4e"/>
      <circle id="Ellipse_5-5" data-name="Ellipse 5" cx="2.816" cy="2.816" r="2.816" transform="translate(815.977 286.58)" fill="#444"/>
      <circle id="Ellipse_7-5" data-name="Ellipse 7" cx="2.816" cy="2.816" r="2.816" transform="translate(815.977 345.717)" fill="#444"/>
      <rect id="Rectangle_17-5" data-name="Rectangle 17" width="66.177" height="11.264" rx="3" transform="translate(828.649 286.58)" fill="#444"/>
      <rect id="Rectangle_23-5" data-name="Rectangle 23" width="66.177" height="11.264" rx="3" transform="translate(828.649 345.717)" fill="#444"/>
      <rect id="Rectangle_24-3" data-name="Rectangle 24" width="45.057" height="12.672" rx="3" transform="translate(828.649 365.43)" fill="#444"/>
      <rect id="Rectangle_19-5" data-name="Rectangle 19" width="66.177" height="12.672" rx="3" transform="translate(917.355 304.885)" fill="#144c4e"/>
      <rect id="Rectangle_25-3" data-name="Rectangle 25" width="66.177" height="12.672" rx="3" transform="translate(917.355 385.142)" fill="#144c4e"/>
      <rect id="Rectangle_22-5" data-name="Rectangle 22" width="43.649" height="12.672" rx="3" transform="translate(939.884 324.597)" fill="#144c4e"/>
      <ellipse id="Ellipse_4-6" data-name="Ellipse 4" cx="3.52" cy="2.816" rx="3.52" ry="2.816" transform="translate(990.573 430.199)" fill="#144c4e"/>
      <ellipse id="Ellipse_5-6" data-name="Ellipse 5" cx="2.816" cy="3.52" rx="2.816" ry="3.52" transform="translate(815.977 410.487)" fill="#444"/>
      <ellipse id="Ellipse_7-6" data-name="Ellipse 7" cx="2.816" cy="3.52" rx="2.816" ry="3.52" transform="translate(815.977 469.624)" fill="#444"/>
      <rect id="Rectangle_17-6" data-name="Rectangle 17" width="66.177" height="11.264" rx="3" transform="translate(828.649 410.487)" fill="#444"/>
      <rect id="Rectangle_23-6" data-name="Rectangle 23" width="66.177" height="12.672" rx="3" transform="translate(828.649 469.624)" fill="#444"/>
      <rect id="Rectangle_19-6" data-name="Rectangle 19" width="66.177" height="12.672" rx="3" transform="translate(917.355 430.199)" fill="#144c4e"/>
      <rect id="Rectangle_22-6" data-name="Rectangle 22" width="43.649" height="12.672" rx="3" transform="translate(939.884 448.503)" fill="#144c4e"/>
      <rect id="Rectangle_18-3" data-name="Rectangle 18" width="161.923" height="16.896" rx="3" transform="translate(815.977 504.825)" fill="#444"/>
      <path id="Polygon_1-3" data-name="Polygon 1" d="M2.6,2.215a1,1,0,0,1,1.846,0l2.02,4.848A1,1,0,0,1,5.54,8.448H1.5A1,1,0,0,1,.577,7.064Z" transform="translate(997.613 509.049) rotate(90)" fill="#444"/>
    </g>
    <g id="Group_33" data-name="Group 33" transform="matrix(0.966, 0.259, -0.259, 0.966, 36.918, 167.091)" opacity="0.26">
      <rect id="Rectangle_16-4" data-name="Rectangle 16" width="211.204" height="308.358" rx="16" transform="translate(800.489 233.075)" fill="#242424"/>
      <ellipse id="Ellipse_6-4" data-name="Ellipse 6" cx="6.836" cy="7.04" rx="6.836" ry="7.04" transform="translate(815.977 252.787)" fill="#0f0f0f"/>
      <rect id="Rectangle_20-4" data-name="Rectangle 20" width="47.873" height="4.224" rx="2" transform="translate(837.098 255.604)" fill="#0f0f0f"/>
      <rect id="Rectangle_21-4" data-name="Rectangle 21" width="18.304" height="4.224" rx="2" transform="translate(837.098 261.236)" fill="#444"/>
      <ellipse id="Ellipse_4-7" data-name="Ellipse 4" cx="3.52" cy="4.224" rx="3.52" ry="4.224" transform="translate(990.573 304.885)" fill="#144c4e"/>
      <ellipse id="Ellipse_8-4" data-name="Ellipse 8" cx="3.52" cy="4.224" rx="3.52" ry="4.224" transform="translate(990.573 385.142)" fill="#144c4e"/>
      <circle id="Ellipse_5-7" data-name="Ellipse 5" cx="2.816" cy="2.816" r="2.816" transform="translate(815.977 286.58)" fill="#444"/>
      <circle id="Ellipse_7-7" data-name="Ellipse 7" cx="2.816" cy="2.816" r="2.816" transform="translate(815.977 345.717)" fill="#444"/>
      <rect id="Rectangle_17-7" data-name="Rectangle 17" width="66.177" height="11.264" rx="3" transform="translate(828.649 286.58)" fill="#444"/>
      <rect id="Rectangle_23-7" data-name="Rectangle 23" width="66.177" height="11.264" rx="3" transform="translate(828.649 345.717)" fill="#444"/>
      <rect id="Rectangle_24-4" data-name="Rectangle 24" width="45.057" height="12.672" rx="3" transform="translate(828.649 365.43)" fill="#444"/>
      <rect id="Rectangle_19-7" data-name="Rectangle 19" width="66.177" height="12.672" rx="3" transform="translate(917.355 304.885)" fill="#144c4e"/>
      <rect id="Rectangle_25-4" data-name="Rectangle 25" width="66.177" height="12.672" rx="3" transform="translate(917.355 385.142)" fill="#144c4e"/>
      <rect id="Rectangle_22-7" data-name="Rectangle 22" width="43.649" height="12.672" rx="3" transform="translate(939.884 324.597)" fill="#144c4e"/>
      <ellipse id="Ellipse_4-8" data-name="Ellipse 4" cx="3.52" cy="2.816" rx="3.52" ry="2.816" transform="translate(990.573 430.199)" fill="#144c4e"/>
      <ellipse id="Ellipse_5-8" data-name="Ellipse 5" cx="2.816" cy="3.52" rx="2.816" ry="3.52" transform="translate(815.977 410.487)" fill="#444"/>
      <ellipse id="Ellipse_7-8" data-name="Ellipse 7" cx="2.816" cy="3.52" rx="2.816" ry="3.52" transform="translate(815.977 469.624)" fill="#444"/>
      <rect id="Rectangle_17-8" data-name="Rectangle 17" width="66.177" height="11.264" rx="3" transform="translate(828.649 410.487)" fill="#444"/>
      <rect id="Rectangle_23-8" data-name="Rectangle 23" width="66.177" height="12.672" rx="3" transform="translate(828.649 469.624)" fill="#444"/>
      <rect id="Rectangle_19-8" data-name="Rectangle 19" width="66.177" height="12.672" rx="3" transform="translate(917.355 430.199)" fill="#144c4e"/>
      <rect id="Rectangle_22-8" data-name="Rectangle 22" width="43.649" height="12.672" rx="3" transform="translate(939.884 448.503)" fill="#144c4e"/>
      <rect id="Rectangle_18-4" data-name="Rectangle 18" width="161.923" height="16.896" rx="3" transform="translate(815.977 504.825)" fill="#444"/>
      <path id="Polygon_1-4" data-name="Polygon 1" d="M2.6,2.215a1,1,0,0,1,1.846,0l2.02,4.848A1,1,0,0,1,5.54,8.448H1.5A1,1,0,0,1,.577,7.064Z" transform="translate(997.613 509.049) rotate(90)" fill="#444"/>
    </g>
    <g id="Group_36" data-name="Group 36" transform="matrix(0.966, 0.259, -0.259, 0.966, -245.743, 171.069)" opacity="0.26">
      <rect id="Rectangle_16-5" data-name="Rectangle 16" width="211.204" height="308.358" rx="16" transform="translate(800.489 233.075)" fill="#242424"/>
      <ellipse id="Ellipse_6-5" data-name="Ellipse 6" cx="6.836" cy="7.04" rx="6.836" ry="7.04" transform="translate(815.977 252.787)" fill="#0f0f0f"/>
      <rect id="Rectangle_20-5" data-name="Rectangle 20" width="47.873" height="4.224" rx="2" transform="translate(837.098 255.604)" fill="#0f0f0f"/>
      <rect id="Rectangle_21-5" data-name="Rectangle 21" width="18.304" height="4.224" rx="2" transform="translate(837.098 261.236)" fill="#444"/>
      <ellipse id="Ellipse_4-9" data-name="Ellipse 4" cx="3.52" cy="4.224" rx="3.52" ry="4.224" transform="translate(990.573 304.885)" fill="#144c4e"/>
      <ellipse id="Ellipse_8-5" data-name="Ellipse 8" cx="3.52" cy="4.224" rx="3.52" ry="4.224" transform="translate(990.573 385.142)" fill="#144c4e"/>
      <circle id="Ellipse_5-9" data-name="Ellipse 5" cx="2.816" cy="2.816" r="2.816" transform="translate(815.977 286.58)" fill="#444"/>
      <circle id="Ellipse_7-9" data-name="Ellipse 7" cx="2.816" cy="2.816" r="2.816" transform="translate(815.977 345.717)" fill="#444"/>
      <rect id="Rectangle_17-9" data-name="Rectangle 17" width="66.177" height="11.264" rx="3" transform="translate(828.649 286.58)" fill="#444"/>
      <rect id="Rectangle_23-9" data-name="Rectangle 23" width="66.177" height="11.264" rx="3" transform="translate(828.649 345.717)" fill="#444"/>
      <rect id="Rectangle_24-5" data-name="Rectangle 24" width="45.057" height="12.672" rx="3" transform="translate(828.649 365.43)" fill="#444"/>
      <rect id="Rectangle_19-9" data-name="Rectangle 19" width="66.177" height="12.672" rx="3" transform="translate(917.355 304.885)" fill="#144c4e"/>
      <rect id="Rectangle_25-5" data-name="Rectangle 25" width="66.177" height="12.672" rx="3" transform="translate(917.355 385.142)" fill="#144c4e"/>
      <rect id="Rectangle_22-9" data-name="Rectangle 22" width="43.649" height="12.672" rx="3" transform="translate(939.884 324.597)" fill="#144c4e"/>
      <ellipse id="Ellipse_4-10" data-name="Ellipse 4" cx="3.52" cy="2.816" rx="3.52" ry="2.816" transform="translate(990.573 430.199)" fill="#144c4e"/>
      <ellipse id="Ellipse_5-10" data-name="Ellipse 5" cx="2.816" cy="3.52" rx="2.816" ry="3.52" transform="translate(815.977 410.487)" fill="#444"/>
      <ellipse id="Ellipse_7-10" data-name="Ellipse 7" cx="2.816" cy="3.52" rx="2.816" ry="3.52" transform="translate(815.977 469.624)" fill="#444"/>
      <rect id="Rectangle_17-10" data-name="Rectangle 17" width="66.177" height="11.264" rx="3" transform="translate(828.649 410.487)" fill="#444"/>
      <rect id="Rectangle_23-10" data-name="Rectangle 23" width="66.177" height="12.672" rx="3" transform="translate(828.649 469.624)" fill="#444"/>
      <rect id="Rectangle_19-10" data-name="Rectangle 19" width="66.177" height="12.672" rx="3" transform="translate(917.355 430.199)" fill="#144c4e"/>
      <rect id="Rectangle_22-10" data-name="Rectangle 22" width="43.649" height="12.672" rx="3" transform="translate(939.884 448.503)" fill="#144c4e"/>
      <rect id="Rectangle_18-5" data-name="Rectangle 18" width="161.923" height="16.896" rx="3" transform="translate(815.977 504.825)" fill="#444"/>
      <path id="Polygon_1-5" data-name="Polygon 1" d="M2.6,2.215a1,1,0,0,1,1.846,0l2.02,4.848A1,1,0,0,1,5.54,8.448H1.5A1,1,0,0,1,.577,7.064Z" transform="translate(997.613 509.049) rotate(90)" fill="#444"/>
    </g>
    <g id="Group_37" data-name="Group 37" transform="matrix(0.966, 0.259, -0.259, 0.966, -478.452, -11.377)" opacity="0.26">
      <rect id="Rectangle_16-6" data-name="Rectangle 16" width="211.204" height="308.358" rx="16" transform="translate(800.489 233.075)" fill="#242424"/>
      <ellipse id="Ellipse_6-6" data-name="Ellipse 6" cx="6.836" cy="7.04" rx="6.836" ry="7.04" transform="translate(815.977 252.787)" fill="#0f0f0f"/>
      <rect id="Rectangle_20-6" data-name="Rectangle 20" width="47.873" height="4.224" rx="2" transform="translate(837.098 255.604)" fill="#0f0f0f"/>
      <rect id="Rectangle_21-6" data-name="Rectangle 21" width="18.304" height="4.224" rx="2" transform="translate(837.098 261.236)" fill="#444"/>
      <ellipse id="Ellipse_4-11" data-name="Ellipse 4" cx="3.52" cy="4.224" rx="3.52" ry="4.224" transform="translate(990.573 304.885)" fill="#144c4e"/>
      <ellipse id="Ellipse_8-6" data-name="Ellipse 8" cx="3.52" cy="4.224" rx="3.52" ry="4.224" transform="translate(990.573 385.142)" fill="#144c4e"/>
      <circle id="Ellipse_5-11" data-name="Ellipse 5" cx="2.816" cy="2.816" r="2.816" transform="translate(815.977 286.58)" fill="#444"/>
      <circle id="Ellipse_7-11" data-name="Ellipse 7" cx="2.816" cy="2.816" r="2.816" transform="translate(815.977 345.717)" fill="#444"/>
      <rect id="Rectangle_17-11" data-name="Rectangle 17" width="66.177" height="11.264" rx="3" transform="translate(828.649 286.58)" fill="#444"/>
      <rect id="Rectangle_23-11" data-name="Rectangle 23" width="66.177" height="11.264" rx="3" transform="translate(828.649 345.717)" fill="#444"/>
      <rect id="Rectangle_24-6" data-name="Rectangle 24" width="45.057" height="12.672" rx="3" transform="translate(828.649 365.43)" fill="#444"/>
      <rect id="Rectangle_19-11" data-name="Rectangle 19" width="66.177" height="12.672" rx="3" transform="translate(917.355 304.885)" fill="#144c4e"/>
      <rect id="Rectangle_25-6" data-name="Rectangle 25" width="66.177" height="12.672" rx="3" transform="translate(917.355 385.142)" fill="#144c4e"/>
      <rect id="Rectangle_22-11" data-name="Rectangle 22" width="43.649" height="12.672" rx="3" transform="translate(939.884 324.597)" fill="#144c4e"/>
      <ellipse id="Ellipse_4-12" data-name="Ellipse 4" cx="3.52" cy="2.816" rx="3.52" ry="2.816" transform="translate(990.573 430.199)" fill="#144c4e"/>
      <ellipse id="Ellipse_5-12" data-name="Ellipse 5" cx="2.816" cy="3.52" rx="2.816" ry="3.52" transform="translate(815.977 410.487)" fill="#444"/>
      <ellipse id="Ellipse_7-12" data-name="Ellipse 7" cx="2.816" cy="3.52" rx="2.816" ry="3.52" transform="translate(815.977 469.624)" fill="#444"/>
      <rect id="Rectangle_17-12" data-name="Rectangle 17" width="66.177" height="11.264" rx="3" transform="translate(828.649 410.487)" fill="#444"/>
      <rect id="Rectangle_23-12" data-name="Rectangle 23" width="66.177" height="12.672" rx="3" transform="translate(828.649 469.624)" fill="#444"/>
      <rect id="Rectangle_19-12" data-name="Rectangle 19" width="66.177" height="12.672" rx="3" transform="translate(917.355 430.199)" fill="#144c4e"/>
      <rect id="Rectangle_22-12" data-name="Rectangle 22" width="43.649" height="12.672" rx="3" transform="translate(939.884 448.503)" fill="#144c4e"/>
      <rect id="Rectangle_18-6" data-name="Rectangle 18" width="161.923" height="16.896" rx="3" transform="translate(815.977 504.825)" fill="#444"/>
      <path id="Polygon_1-6" data-name="Polygon 1" d="M2.6,2.215a1,1,0,0,1,1.846,0l2.02,4.848A1,1,0,0,1,5.54,8.448H1.5A1,1,0,0,1,.577,7.064Z" transform="translate(997.613 509.049) rotate(90)" fill="#444"/>
    </g>
    <g id="Group_32" data-name="Group 32" transform="matrix(0.966, 0.259, -0.259, 0.966, 225.855, -538.034)" opacity="0.26">
      <rect id="Rectangle_16-7" data-name="Rectangle 16" width="211.204" height="308.358" rx="16" transform="translate(800.489 233.075)" fill="#242424"/>
      <ellipse id="Ellipse_6-7" data-name="Ellipse 6" cx="6.836" cy="7.04" rx="6.836" ry="7.04" transform="translate(815.977 252.787)" fill="#0f0f0f"/>
      <rect id="Rectangle_20-7" data-name="Rectangle 20" width="47.873" height="4.224" rx="2" transform="translate(837.098 255.604)" fill="#0f0f0f"/>
      <rect id="Rectangle_21-7" data-name="Rectangle 21" width="18.304" height="4.224" rx="2" transform="translate(837.098 261.236)" fill="#444"/>
      <ellipse id="Ellipse_4-13" data-name="Ellipse 4" cx="3.52" cy="4.224" rx="3.52" ry="4.224" transform="translate(990.573 304.885)" fill="#144c4e"/>
      <ellipse id="Ellipse_8-7" data-name="Ellipse 8" cx="3.52" cy="4.224" rx="3.52" ry="4.224" transform="translate(990.573 385.142)" fill="#144c4e"/>
      <circle id="Ellipse_5-13" data-name="Ellipse 5" cx="2.816" cy="2.816" r="2.816" transform="translate(815.977 286.58)" fill="#444"/>
      <circle id="Ellipse_7-13" data-name="Ellipse 7" cx="2.816" cy="2.816" r="2.816" transform="translate(815.977 345.717)" fill="#444"/>
      <rect id="Rectangle_17-13" data-name="Rectangle 17" width="66.177" height="11.264" rx="3" transform="translate(828.649 286.58)" fill="#444"/>
      <rect id="Rectangle_23-13" data-name="Rectangle 23" width="66.177" height="11.264" rx="3" transform="translate(828.649 345.717)" fill="#444"/>
      <rect id="Rectangle_24-7" data-name="Rectangle 24" width="45.057" height="12.672" rx="3" transform="translate(828.649 365.43)" fill="#444"/>
      <rect id="Rectangle_19-13" data-name="Rectangle 19" width="66.177" height="12.672" rx="3" transform="translate(917.355 304.885)" fill="#144c4e"/>
      <rect id="Rectangle_25-7" data-name="Rectangle 25" width="66.177" height="12.672" rx="3" transform="translate(917.355 385.142)" fill="#144c4e"/>
      <rect id="Rectangle_22-13" data-name="Rectangle 22" width="43.649" height="12.672" rx="3" transform="translate(939.884 324.597)" fill="#144c4e"/>
      <ellipse id="Ellipse_4-14" data-name="Ellipse 4" cx="3.52" cy="2.816" rx="3.52" ry="2.816" transform="translate(990.573 430.199)" fill="#144c4e"/>
      <ellipse id="Ellipse_5-14" data-name="Ellipse 5" cx="2.816" cy="3.52" rx="2.816" ry="3.52" transform="translate(815.977 410.487)" fill="#444"/>
      <ellipse id="Ellipse_7-14" data-name="Ellipse 7" cx="2.816" cy="3.52" rx="2.816" ry="3.52" transform="translate(815.977 469.624)" fill="#444"/>
      <rect id="Rectangle_17-14" data-name="Rectangle 17" width="66.177" height="11.264" rx="3" transform="translate(828.649 410.487)" fill="#444"/>
      <rect id="Rectangle_23-14" data-name="Rectangle 23" width="66.177" height="12.672" rx="3" transform="translate(828.649 469.624)" fill="#444"/>
      <rect id="Rectangle_19-14" data-name="Rectangle 19" width="66.177" height="12.672" rx="3" transform="translate(917.355 430.199)" fill="#144c4e"/>
      <rect id="Rectangle_22-14" data-name="Rectangle 22" width="43.649" height="12.672" rx="3" transform="translate(939.884 448.503)" fill="#144c4e"/>
      <rect id="Rectangle_18-7" data-name="Rectangle 18" width="161.923" height="16.896" rx="3" transform="translate(815.977 504.825)" fill="#444"/>
      <path id="Polygon_1-7" data-name="Polygon 1" d="M2.6,2.215a1,1,0,0,1,1.846,0l2.02,4.848A1,1,0,0,1,5.54,8.448H1.5A1,1,0,0,1,.577,7.064Z" transform="translate(997.613 509.049) rotate(90)" fill="#444"/>
    </g>
    <g id="Group_34" data-name="Group 34" transform="matrix(0.966, 0.259, -0.259, 0.966, -56.805, -534.057)" opacity="0.26">
      <rect id="Rectangle_16-8" data-name="Rectangle 16" width="211.204" height="308.358" rx="16" transform="translate(800.489 233.075)" fill="#242424"/>
      <ellipse id="Ellipse_6-8" data-name="Ellipse 6" cx="6.836" cy="7.04" rx="6.836" ry="7.04" transform="translate(815.977 252.787)" fill="#0f0f0f"/>
      <rect id="Rectangle_20-8" data-name="Rectangle 20" width="47.873" height="4.224" rx="2" transform="translate(837.098 255.604)" fill="#0f0f0f"/>
      <rect id="Rectangle_21-8" data-name="Rectangle 21" width="18.304" height="4.224" rx="2" transform="translate(837.098 261.236)" fill="#444"/>
      <ellipse id="Ellipse_4-15" data-name="Ellipse 4" cx="3.52" cy="4.224" rx="3.52" ry="4.224" transform="translate(990.573 304.885)" fill="#144c4e"/>
      <ellipse id="Ellipse_8-8" data-name="Ellipse 8" cx="3.52" cy="4.224" rx="3.52" ry="4.224" transform="translate(990.573 385.142)" fill="#144c4e"/>
      <circle id="Ellipse_5-15" data-name="Ellipse 5" cx="2.816" cy="2.816" r="2.816" transform="translate(815.977 286.58)" fill="#444"/>
      <circle id="Ellipse_7-15" data-name="Ellipse 7" cx="2.816" cy="2.816" r="2.816" transform="translate(815.977 345.717)" fill="#444"/>
      <rect id="Rectangle_17-15" data-name="Rectangle 17" width="66.177" height="11.264" rx="3" transform="translate(828.649 286.58)" fill="#444"/>
      <rect id="Rectangle_23-15" data-name="Rectangle 23" width="66.177" height="11.264" rx="3" transform="translate(828.649 345.717)" fill="#444"/>
      <rect id="Rectangle_24-8" data-name="Rectangle 24" width="45.057" height="12.672" rx="3" transform="translate(828.649 365.43)" fill="#444"/>
      <rect id="Rectangle_19-15" data-name="Rectangle 19" width="66.177" height="12.672" rx="3" transform="translate(917.355 304.885)" fill="#144c4e"/>
      <rect id="Rectangle_25-8" data-name="Rectangle 25" width="66.177" height="12.672" rx="3" transform="translate(917.355 385.142)" fill="#144c4e"/>
      <rect id="Rectangle_22-15" data-name="Rectangle 22" width="43.649" height="12.672" rx="3" transform="translate(939.884 324.597)" fill="#144c4e"/>
      <ellipse id="Ellipse_4-16" data-name="Ellipse 4" cx="3.52" cy="2.816" rx="3.52" ry="2.816" transform="translate(990.573 430.199)" fill="#144c4e"/>
      <ellipse id="Ellipse_5-16" data-name="Ellipse 5" cx="2.816" cy="3.52" rx="2.816" ry="3.52" transform="translate(815.977 410.487)" fill="#444"/>
      <ellipse id="Ellipse_7-16" data-name="Ellipse 7" cx="2.816" cy="3.52" rx="2.816" ry="3.52" transform="translate(815.977 469.624)" fill="#444"/>
      <rect id="Rectangle_17-16" data-name="Rectangle 17" width="66.177" height="11.264" rx="3" transform="translate(828.649 410.487)" fill="#444"/>
      <rect id="Rectangle_23-16" data-name="Rectangle 23" width="66.177" height="12.672" rx="3" transform="translate(828.649 469.624)" fill="#444"/>
      <rect id="Rectangle_19-16" data-name="Rectangle 19" width="66.177" height="12.672" rx="3" transform="translate(917.355 430.199)" fill="#144c4e"/>
      <rect id="Rectangle_22-16" data-name="Rectangle 22" width="43.649" height="12.672" rx="3" transform="translate(939.884 448.503)" fill="#144c4e"/>
      <rect id="Rectangle_18-8" data-name="Rectangle 18" width="161.923" height="16.896" rx="3" transform="translate(815.977 504.825)" fill="#444"/>
      <path id="Polygon_1-8" data-name="Polygon 1" d="M2.6,2.215a1,1,0,0,1,1.846,0l2.02,4.848A1,1,0,0,1,5.54,8.448H1.5A1,1,0,0,1,.577,7.064Z" transform="translate(997.613 509.049) rotate(90)" fill="#444"/>
    </g>
    <g id="Group_29" data-name="Group 29" transform="matrix(0.966, 0.259, -0.259, 0.966, 404.212, -152.744)" opacity="0.26">
      <rect id="Rectangle_16-9" data-name="Rectangle 16" width="211.204" height="308.358" rx="16" transform="translate(800.489 233.075)" fill="#242424"/>
      <ellipse id="Ellipse_6-9" data-name="Ellipse 6" cx="6.836" cy="7.04" rx="6.836" ry="7.04" transform="translate(815.977 252.787)" fill="#0f0f0f"/>
      <rect id="Rectangle_20-9" data-name="Rectangle 20" width="47.873" height="4.224" rx="2" transform="translate(837.098 255.604)" fill="#0f0f0f"/>
      <rect id="Rectangle_21-9" data-name="Rectangle 21" width="18.304" height="4.224" rx="2" transform="translate(837.098 261.236)" fill="#444"/>
      <ellipse id="Ellipse_4-17" data-name="Ellipse 4" cx="3.52" cy="4.224" rx="3.52" ry="4.224" transform="translate(990.573 304.885)" fill="#144c4e"/>
      <ellipse id="Ellipse_8-9" data-name="Ellipse 8" cx="3.52" cy="4.224" rx="3.52" ry="4.224" transform="translate(990.573 385.142)" fill="#144c4e"/>
      <circle id="Ellipse_5-17" data-name="Ellipse 5" cx="2.816" cy="2.816" r="2.816" transform="translate(815.977 286.58)" fill="#444"/>
      <circle id="Ellipse_7-17" data-name="Ellipse 7" cx="2.816" cy="2.816" r="2.816" transform="translate(815.977 345.717)" fill="#444"/>
      <rect id="Rectangle_17-17" data-name="Rectangle 17" width="66.177" height="11.264" rx="3" transform="translate(828.649 286.58)" fill="#444"/>
      <rect id="Rectangle_23-17" data-name="Rectangle 23" width="66.177" height="11.264" rx="3" transform="translate(828.649 345.717)" fill="#444"/>
      <rect id="Rectangle_24-9" data-name="Rectangle 24" width="45.057" height="12.672" rx="3" transform="translate(828.649 365.43)" fill="#444"/>
      <rect id="Rectangle_19-17" data-name="Rectangle 19" width="66.177" height="12.672" rx="3" transform="translate(917.355 304.885)" fill="#144c4e"/>
      <rect id="Rectangle_25-9" data-name="Rectangle 25" width="66.177" height="12.672" rx="3" transform="translate(917.355 385.142)" fill="#144c4e"/>
      <rect id="Rectangle_22-17" data-name="Rectangle 22" width="43.649" height="12.672" rx="3" transform="translate(939.884 324.597)" fill="#144c4e"/>
      <ellipse id="Ellipse_4-18" data-name="Ellipse 4" cx="3.52" cy="2.816" rx="3.52" ry="2.816" transform="translate(990.573 430.199)" fill="#144c4e"/>
      <ellipse id="Ellipse_5-18" data-name="Ellipse 5" cx="2.816" cy="3.52" rx="2.816" ry="3.52" transform="translate(815.977 410.487)" fill="#444"/>
      <ellipse id="Ellipse_7-18" data-name="Ellipse 7" cx="2.816" cy="3.52" rx="2.816" ry="3.52" transform="translate(815.977 469.624)" fill="#444"/>
      <rect id="Rectangle_17-18" data-name="Rectangle 17" width="66.177" height="11.264" rx="3" transform="translate(828.649 410.487)" fill="#444"/>
      <rect id="Rectangle_23-18" data-name="Rectangle 23" width="66.177" height="12.672" rx="3" transform="translate(828.649 469.624)" fill="#444"/>
      <rect id="Rectangle_19-18" data-name="Rectangle 19" width="66.177" height="12.672" rx="3" transform="translate(917.355 430.199)" fill="#144c4e"/>
      <rect id="Rectangle_22-18" data-name="Rectangle 22" width="43.649" height="12.672" rx="3" transform="translate(939.884 448.503)" fill="#144c4e"/>
      <rect id="Rectangle_18-9" data-name="Rectangle 18" width="161.923" height="16.896" rx="3" transform="translate(815.977 504.825)" fill="#444"/>
      <path id="Polygon_1-9" data-name="Polygon 1" d="M2.6,2.215a1,1,0,0,1,1.846,0l2.02,4.848A1,1,0,0,1,5.54,8.448H1.5A1,1,0,0,1,.577,7.064Z" transform="translate(997.613 509.049) rotate(90)" fill="#444"/>
    </g>
    <g id="Group_30" data-name="Group 30" transform="matrix(0.966, 0.259, -0.259, 0.966, 498.681, -505.307)" opacity="0.26">
      <rect id="Rectangle_16-10" data-name="Rectangle 16" width="211.204" height="308.358" rx="16" transform="translate(800.489 233.075)" fill="#242424"/>
      <ellipse id="Ellipse_6-10" data-name="Ellipse 6" cx="6.836" cy="7.04" rx="6.836" ry="7.04" transform="translate(815.977 252.787)" fill="#0f0f0f"/>
      <rect id="Rectangle_20-10" data-name="Rectangle 20" width="47.873" height="4.224" rx="2" transform="translate(837.098 255.604)" fill="#0f0f0f"/>
      <rect id="Rectangle_21-10" data-name="Rectangle 21" width="18.304" height="4.224" rx="2" transform="translate(837.098 261.236)" fill="#444"/>
      <ellipse id="Ellipse_4-19" data-name="Ellipse 4" cx="3.52" cy="4.224" rx="3.52" ry="4.224" transform="translate(990.573 304.885)" fill="#144c4e"/>
      <ellipse id="Ellipse_8-10" data-name="Ellipse 8" cx="3.52" cy="4.224" rx="3.52" ry="4.224" transform="translate(990.573 385.142)" fill="#144c4e"/>
      <circle id="Ellipse_5-19" data-name="Ellipse 5" cx="2.816" cy="2.816" r="2.816" transform="translate(815.977 286.58)" fill="#444"/>
      <circle id="Ellipse_7-19" data-name="Ellipse 7" cx="2.816" cy="2.816" r="2.816" transform="translate(815.977 345.717)" fill="#444"/>
      <rect id="Rectangle_17-19" data-name="Rectangle 17" width="66.177" height="11.264" rx="3" transform="translate(828.649 286.58)" fill="#444"/>
      <rect id="Rectangle_23-19" data-name="Rectangle 23" width="66.177" height="11.264" rx="3" transform="translate(828.649 345.717)" fill="#444"/>
      <rect id="Rectangle_24-10" data-name="Rectangle 24" width="45.057" height="12.672" rx="3" transform="translate(828.649 365.43)" fill="#444"/>
      <rect id="Rectangle_19-19" data-name="Rectangle 19" width="66.177" height="12.672" rx="3" transform="translate(917.355 304.885)" fill="#144c4e"/>
      <rect id="Rectangle_25-10" data-name="Rectangle 25" width="66.177" height="12.672" rx="3" transform="translate(917.355 385.142)" fill="#144c4e"/>
      <rect id="Rectangle_22-19" data-name="Rectangle 22" width="43.649" height="12.672" rx="3" transform="translate(939.884 324.597)" fill="#144c4e"/>
      <ellipse id="Ellipse_4-20" data-name="Ellipse 4" cx="3.52" cy="2.816" rx="3.52" ry="2.816" transform="translate(990.573 430.199)" fill="#144c4e"/>
      <ellipse id="Ellipse_5-20" data-name="Ellipse 5" cx="2.816" cy="3.52" rx="2.816" ry="3.52" transform="translate(815.977 410.487)" fill="#444"/>
      <ellipse id="Ellipse_7-20" data-name="Ellipse 7" cx="2.816" cy="3.52" rx="2.816" ry="3.52" transform="translate(815.977 469.624)" fill="#444"/>
      <rect id="Rectangle_17-20" data-name="Rectangle 17" width="66.177" height="11.264" rx="3" transform="translate(828.649 410.487)" fill="#444"/>
      <rect id="Rectangle_23-20" data-name="Rectangle 23" width="66.177" height="12.672" rx="3" transform="translate(828.649 469.624)" fill="#444"/>
      <rect id="Rectangle_19-20" data-name="Rectangle 19" width="66.177" height="12.672" rx="3" transform="translate(917.355 430.199)" fill="#144c4e"/>
      <rect id="Rectangle_22-20" data-name="Rectangle 22" width="43.649" height="12.672" rx="3" transform="translate(939.884 448.503)" fill="#144c4e"/>
      <rect id="Rectangle_18-10" data-name="Rectangle 18" width="161.923" height="16.896" rx="3" transform="translate(815.977 504.825)" fill="#444"/>
      <path id="Polygon_1-10" data-name="Polygon 1" d="M2.6,2.215a1,1,0,0,1,1.846,0l2.02,4.848A1,1,0,0,1,5.54,8.448H1.5A1,1,0,0,1,.577,7.064Z" transform="translate(997.613 509.049) rotate(90)" fill="#444"/>
    </g>
    <g id="Group_31" data-name="Group 31" transform="matrix(0.966, 0.259, -0.259, 0.966, 309.743, 199.819)" opacity="0.26">
      <rect id="Rectangle_16-11" data-name="Rectangle 16" width="211.204" height="308.358" rx="16" transform="translate(800.489 233.075)" fill="#242424"/>
      <ellipse id="Ellipse_6-11" data-name="Ellipse 6" cx="6.836" cy="7.04" rx="6.836" ry="7.04" transform="translate(815.977 252.787)" fill="#0f0f0f"/>
      <rect id="Rectangle_20-11" data-name="Rectangle 20" width="47.873" height="4.224" rx="2" transform="translate(837.098 255.604)" fill="#0f0f0f"/>
      <rect id="Rectangle_21-11" data-name="Rectangle 21" width="18.304" height="4.224" rx="2" transform="translate(837.098 261.236)" fill="#444"/>
      <ellipse id="Ellipse_4-21" data-name="Ellipse 4" cx="3.52" cy="4.224" rx="3.52" ry="4.224" transform="translate(990.573 304.885)" fill="#144c4e"/>
      <ellipse id="Ellipse_8-11" data-name="Ellipse 8" cx="3.52" cy="4.224" rx="3.52" ry="4.224" transform="translate(990.573 385.142)" fill="#144c4e"/>
      <circle id="Ellipse_5-21" data-name="Ellipse 5" cx="2.816" cy="2.816" r="2.816" transform="translate(815.977 286.58)" fill="#444"/>
      <circle id="Ellipse_7-21" data-name="Ellipse 7" cx="2.816" cy="2.816" r="2.816" transform="translate(815.977 345.717)" fill="#444"/>
      <rect id="Rectangle_17-21" data-name="Rectangle 17" width="66.177" height="11.264" rx="3" transform="translate(828.649 286.58)" fill="#444"/>
      <rect id="Rectangle_23-21" data-name="Rectangle 23" width="66.177" height="11.264" rx="3" transform="translate(828.649 345.717)" fill="#444"/>
      <rect id="Rectangle_24-11" data-name="Rectangle 24" width="45.057" height="12.672" rx="3" transform="translate(828.649 365.43)" fill="#444"/>
      <rect id="Rectangle_19-21" data-name="Rectangle 19" width="66.177" height="12.672" rx="3" transform="translate(917.355 304.885)" fill="#144c4e"/>
      <rect id="Rectangle_25-11" data-name="Rectangle 25" width="66.177" height="12.672" rx="3" transform="translate(917.355 385.142)" fill="#144c4e"/>
      <rect id="Rectangle_22-21" data-name="Rectangle 22" width="43.649" height="12.672" rx="3" transform="translate(939.884 324.597)" fill="#144c4e"/>
      <ellipse id="Ellipse_4-22" data-name="Ellipse 4" cx="3.52" cy="2.816" rx="3.52" ry="2.816" transform="translate(990.573 430.199)" fill="#144c4e"/>
      <ellipse id="Ellipse_5-22" data-name="Ellipse 5" cx="2.816" cy="3.52" rx="2.816" ry="3.52" transform="translate(815.977 410.487)" fill="#444"/>
      <ellipse id="Ellipse_7-22" data-name="Ellipse 7" cx="2.816" cy="3.52" rx="2.816" ry="3.52" transform="translate(815.977 469.624)" fill="#444"/>
      <rect id="Rectangle_17-22" data-name="Rectangle 17" width="66.177" height="11.264" rx="3" transform="translate(828.649 410.487)" fill="#444"/>
      <rect id="Rectangle_23-22" data-name="Rectangle 23" width="66.177" height="12.672" rx="3" transform="translate(828.649 469.624)" fill="#444"/>
      <rect id="Rectangle_19-22" data-name="Rectangle 19" width="66.177" height="12.672" rx="3" transform="translate(917.355 430.199)" fill="#144c4e"/>
      <rect id="Rectangle_22-22" data-name="Rectangle 22" width="43.649" height="12.672" rx="3" transform="translate(939.884 448.503)" fill="#144c4e"/>
      <rect id="Rectangle_18-11" data-name="Rectangle 18" width="161.923" height="16.896" rx="3" transform="translate(815.977 504.825)" fill="#444"/>
      <path id="Polygon_1-11" data-name="Polygon 1" d="M2.6,2.215a1,1,0,0,1,1.846,0l2.02,4.848A1,1,0,0,1,5.54,8.448H1.5A1,1,0,0,1,.577,7.064Z" transform="translate(997.613 509.049) rotate(90)" fill="#444"/>
    </g>
  </g>
</svg>
